<?xml version="1.0" encoding="UTF-8" standalone="no"?>
<svg
   viewBox="-20 -20 440 168"
   width="440"
   height="168"
   fill="none"
   role="img"
   aria-label="harbor-hf"
   version="1.1"
   id="svg34"
   xmlns="http://www.w3.org/2000/svg"
   xmlns:svg="http://www.w3.org/2000/svg">
  <defs
     id="defs38" />
  <rect
     x="-19.5"
     y="-19.5"
     width="439"
     height="167"
     rx="22"
     fill="#0F2A47"
     stroke="#24507A"
     id="rect2" />
  <!-- Hugging Face logo (https://huggingface.co/front/assets/huggingface_logo-noborder.svg) -->
  <g
     transform="translate(12,2)"
     id="g22">
    <path
       fill="#ffd21e"
       d="m 47.21,76.5 a 34.75,34.75 0 1 0 0,-69.5 34.75,34.75 0 0 0 0,69.5 z"
       id="path4" />
    <path
       fill="#ff9d0b"
       d="m 81.96,41.75 a 34.75,34.75 0 1 0 -69.5,0 34.75,34.75 0 0 0 69.5,0 z m -73.5,0 a 38.75,38.75 0 1 1 77.5,0 38.75,38.75 0 0 1 -77.5,0 z"
       id="path6" />
    <path
       fill="#3a3b45"
       d="m 58.5,32.3 c 1.28,0.44 1.78,3.06 3.07,2.38 a 5,5 0 1 0 -6.76,-2.07 c 0.61,1.15 2.55,-0.72 3.7,-0.32 z m -23.55,0 c -1.28,0.44 -1.79,3.06 -3.07,2.38 a 5,5 0 1 1 6.76,-2.07 c -0.61,1.15 -2.56,-0.72 -3.7,-0.32 z"
       id="path8" />
    <path
       fill="#ff323d"
       d="m 46.96,56.29 c 9.83,0 13,-8.76 13,-13.26 0,-2.34 -1.57,-1.6 -4.09,-0.36 -2.33,1.15 -5.46,2.74 -8.9,2.74 -7.19,0 -13,-6.88 -13,-2.38 0,4.5 3.16,13.26 13,13.26 z"
       id="path10" />
    <path
       fill="#3a3b45"
       fill-rule="evenodd"
       d="m 39.43,54 a 8.7,8.7 0 0 1 5.3,-4.49 c 0.4,-0.12 0.81,0.57 1.24,1.28 0.4,0.68 0.82,1.37 1.24,1.37 0.45,0 0.9,-0.68 1.33,-1.35 0.45,-0.7 0.89,-1.38 1.32,-1.25 a 8.61,8.61 0 0 1 5,4.17 c 3.73,-2.94 5.1,-7.74 5.1,-10.7 0,-2.34 -1.57,-1.6 -4.09,-0.36 l -0.14,0.07 c -2.31,1.15 -5.39,2.67 -8.77,2.67 -3.38,0 -6.45,-1.52 -8.77,-2.67 -2.6,-1.29 -4.23,-2.1 -4.23,0.29 0,3.05 1.46,8.06 5.47,10.97 z"
       clip-rule="evenodd"
       id="path12" />
    <path
       fill="#ff9d0b"
       d="m 70.71,37 a 3.25,3.25 0 1 0 0,-6.5 3.25,3.25 0 0 0 0,6.5 z m -46.5,0 a 3.25,3.25 0 1 0 0,-6.5 3.25,3.25 0 0 0 0,6.5 z m -6.69,11 c -1.62,0 -3.06,0.66 -4.07,1.87 a 5.97,5.97 0 0 0 -1.33,3.76 7.1,7.1 0 0 0 -1.94,-0.3 c -1.55,0 -2.95,0.59 -3.94,1.66 a 5.8,5.8 0 0 0 -0.8,7 5.3,5.3 0 0 0 -1.79,2.82 c -0.24,0.9 -0.48,2.8 0.8,4.74 a 5.22,5.22 0 0 0 -0.37,5.02 c 1.02,2.32 3.57,4.14 8.52,6.1 3.07,1.22 5.89,2 5.91,2.01 a 44.33,44.33 0 0 0 10.93,1.6 c 5.86,0 10.05,-1.8 12.46,-5.34 3.88,-5.69 3.33,-10.9 -1.7,-15.92 -2.77,-2.78 -4.62,-6.87 -5,-7.77 -0.78,-2.66 -2.84,-5.62 -6.25,-5.62 a 5.7,5.7 0 0 0 -4.6,2.46 c -1,-1.26 -1.98,-2.25 -2.86,-2.82 A 7.4,7.4 0 0 0 17.52,48 Z m 0,4 c 0.51,0 1.14,0.22 1.82,0.65 2.14,1.36 6.25,8.43 7.76,11.18 0.5,0.92 1.37,1.31 2.14,1.31 1.55,0 2.75,-1.53 0.15,-3.48 -3.92,-2.93 -2.55,-7.72 -0.68,-8.01 0.08,-0.02 0.17,-0.02 0.24,-0.02 1.7,0 2.45,2.93 2.45,2.93 0,0 2.2,5.52 5.98,9.3 3.77,3.77 3.97,6.8 1.22,10.83 -1.88,2.75 -5.47,3.58 -9.16,3.58 -3.81,0 -7.73,-0.9 -9.92,-1.46 -0.11,-0.03 -13.45,-3.8 -11.76,-7 0.28,-0.54 0.75,-0.76 1.34,-0.76 2.38,0 6.7,3.54 8.57,3.54 0.41,0 0.7,-0.17 0.83,-0.6 0.79,-2.85 -12.06,-4.05 -10.98,-8.17 0.2,-0.73 0.71,-1.02 1.44,-1.02 3.14,0 10.2,5.53 11.68,5.53 0.11,0 0.2,-0.03 0.24,-0.1 0.74,-1.2 0.33,-2.04 -4.9,-5.2 -5.21,-3.16 -8.88,-5.06 -6.8,-7.33 0.24,-0.26 0.58,-0.38 1,-0.38 3.17,0 10.66,6.82 10.66,6.82 0,0 2.02,2.1 3.25,2.1 0.28,0 0.52,-0.1 0.68,-0.38 C 25.63,64.4 16.71,57.64 16.21,54.85 15.87,52.95 16.45,52 17.52,52 Z"
       id="path14" />
    <path
       fill="#ffd21e"
       d="m 38.6,76.69 c 2.75,-4.04 2.55,-7.07 -1.22,-10.84 -3.78,-3.77 -5.98,-9.3 -5.98,-9.3 0,0 -0.82,-3.2 -2.69,-2.9 -1.87,0.3 -3.24,5.08 0.68,8.01 3.91,2.93 -0.78,4.92 -2.29,2.17 -1.5,-2.75 -5.62,-9.82 -7.76,-11.18 -2.13,-1.35 -3.63,-0.6 -3.13,2.2 0.5,2.79 9.43,9.55 8.56,11 -0.87,1.47 -3.93,-1.71 -3.93,-1.71 0,0 -9.57,-8.71 -11.66,-6.44 -2.08,2.27 1.59,4.17 6.8,7.33 5.23,3.16 5.64,4 4.9,5.2 C 20.13,71.43 8.6,61.7 7.52,65.83 6.44,69.94 19.29,71.13 18.5,73.98 17.7,76.83 9.44,68.6 7.76,71.8 c -1.7,3.21 11.65,6.98 11.76,7.01 4.3,1.12 15.25,3.49 19.08,-2.12 z"
       id="path16" />
    <path
       fill="#ff9d0b"
       d="m 77.4,48 c 1.62,0 3.07,0.66 4.07,1.87 a 5.97,5.97 0 0 1 1.33,3.76 7.1,7.1 0 0 1 1.95,-0.3 c 1.55,0 2.95,0.59 3.94,1.66 a 5.8,5.8 0 0 1 0.8,7 5.3,5.3 0 0 1 1.78,2.82 c 0.24,0.9 0.48,2.8 -0.8,4.74 a 5.22,5.22 0 0 1 0.37,5.02 c -1.02,2.32 -3.57,4.14 -8.51,6.1 -3.08,1.22 -5.9,2 -5.92,2.01 a 44.33,44.33 0 0 1 -10.93,1.6 c -5.86,0 -10.05,-1.8 -12.46,-5.34 -3.88,-5.69 -3.33,-10.9 1.7,-15.92 2.78,-2.78 4.63,-6.87 5.01,-7.77 0.78,-2.66 2.83,-5.62 6.24,-5.62 a 5.7,5.7 0 0 1 4.6,2.46 c 1,-1.26 1.98,-2.25 2.87,-2.82 A 7.4,7.4 0 0 1 77.4,48 Z m 0,4 c -0.51,0 -1.13,0.22 -1.82,0.65 -2.13,1.36 -6.25,8.43 -7.76,11.18 a 2.43,2.43 0 0 1 -2.14,1.31 c -1.54,0 -2.75,-1.53 -0.14,-3.48 3.91,-2.93 2.54,-7.72 0.67,-8.01 a 1.54,1.54 0 0 0 -0.24,-0.02 c -1.7,0 -2.45,2.93 -2.45,2.93 0,0 -2.2,5.52 -5.97,9.3 -3.78,3.77 -3.98,6.8 -1.22,10.83 1.87,2.75 5.47,3.58 9.15,3.58 3.82,0 7.73,-0.9 9.93,-1.46 0.1,-0.03 13.45,-3.8 11.76,-7 -0.29,-0.54 -0.75,-0.76 -1.34,-0.76 -2.38,0 -6.71,3.54 -8.57,3.54 -0.42,0 -0.71,-0.17 -0.83,-0.6 -0.8,-2.85 12.05,-4.05 10.97,-8.17 -0.19,-0.73 -0.7,-1.02 -1.44,-1.02 -3.14,0 -10.2,5.53 -11.68,5.53 -0.1,0 -0.19,-0.03 -0.23,-0.1 -0.74,-1.2 -0.34,-2.04 4.88,-5.2 5.23,-3.16 8.9,-5.06 6.8,-7.33 -0.23,-0.26 -0.57,-0.38 -0.98,-0.38 -3.18,0 -10.67,6.82 -10.67,6.82 0,0 -2.02,2.1 -3.24,2.1 A 0.74,0.74 0 0 1 70.16,65.86 C 69.29,64.4 78.21,57.64 78.71,54.85 79.05,52.95 78.47,52 77.4,52 Z"
       id="path18" />
    <path
       fill="#ffd21e"
       d="m 56.33,76.69 c -2.75,-4.04 -2.56,-7.07 1.22,-10.84 3.77,-3.77 5.97,-9.3 5.97,-9.3 0,0 0.82,-3.2 2.7,-2.9 1.86,0.3 3.23,5.08 -0.68,8.01 -3.92,2.93 0.78,4.92 2.28,2.17 1.51,-2.75 5.63,-9.82 7.76,-11.18 2.13,-1.35 3.64,-0.6 3.13,2.2 -0.5,2.79 -9.42,9.55 -8.55,11 0.86,1.47 3.92,-1.71 3.92,-1.71 0,0 9.58,-8.71 11.66,-6.44 2.08,2.27 -1.58,4.17 -6.8,7.33 -5.23,3.16 -5.63,4 -4.9,5.2 0.75,1.2 12.28,-8.53 13.36,-4.4 1.08,4.11 -11.76,5.3 -10.97,8.15 0.8,2.85 9.05,-5.38 10.74,-2.18 1.69,3.21 -11.65,6.98 -11.76,7.01 -4.31,1.12 -15.26,3.49 -19.08,-2.12 z"
       id="path20" />
  </g>
  <!-- harbor waves -->
  <path
     stroke="#38BDF8"
     stroke-width="4.5"
     stroke-linecap="round"
     d="M8 104q13-9 26 0t26 0t26 0t26 0"
     id="path24" />
  <path
     stroke="#38BDF8"
     stroke-width="4.5"
     stroke-linecap="round"
     opacity=".45"
     d="M21 116q13-9 26 0t26 0t26 0"
     id="path26" />
  <!-- wordmark -->
  <g
     aria-label="harbor-hf"
     id="text32"
     style="font-weight:900;font-size:58px;font-family:Lato;letter-spacing:-1">
    <path
       d="m 146.035,52.566 q 1.624,-1.392 3.509,-2.233 1.914,-0.87 4.553,-0.87 2.465,0 4.35,0.87 1.914,0.841 3.219,2.378 1.305,1.508 1.972,3.625 0.667,2.088 0.667,4.553 V 80 h -8.99 V 60.889 q 0,-2.204 -1.015,-3.422 -1.015,-1.247 -2.987,-1.247 -1.479,0 -2.784,0.638 -1.276,0.609 -2.494,1.682 V 80 h -8.99 V 36.587 h 8.99 z"
       style="fill:#f8fafc"
       id="path40" />
    <path
       d="m 184.61998,67.762 q -2.697,0.116 -4.437,0.464 -1.74,0.348 -2.755,0.87 -1.015,0.522 -1.421,1.189 -0.377,0.667 -0.377,1.45 0,1.537 0.841,2.175 0.841,0.609 2.465,0.609 1.74,0 3.045,-0.609 1.305,-0.609 2.639,-1.972 z m -16.182,-13.659 q 2.726,-2.407 6.032,-3.567 3.335,-1.189 7.134,-1.189 2.726,0 4.901,0.899 2.204,0.87 3.712,2.465 1.537,1.566 2.349,3.741 0.812,2.175 0.812,4.756 V 80 h -4.118 q -1.276,0 -1.943,-0.348 -0.638,-0.348 -1.073,-1.45 l -0.638,-1.653 q -1.131,0.957 -2.175,1.682 -1.044,0.725 -2.175,1.247 -1.102,0.493 -2.378,0.725 -1.247,0.261 -2.784,0.261 -2.059,0 -3.741,-0.522 -1.682,-0.551 -2.871,-1.595 -1.16,-1.044 -1.798,-2.581 -0.638,-1.566 -0.638,-3.596 0,-1.624 0.812,-3.277 0.812,-1.682 2.813,-3.045 2.001,-1.392 5.394,-2.32 3.393,-0.928 8.555,-1.044 v -1.276 q 0,-2.639 -1.102,-3.799 -1.073,-1.189 -3.074,-1.189 -1.595,0 -2.61,0.348 -1.015,0.348 -1.827,0.783 -0.783,0.435 -1.537,0.783 -0.754,0.348 -1.798,0.348 -0.928,0 -1.566,-0.464 -0.638,-0.464 -1.044,-1.102 z"
       style="fill:#f8fafc"
       id="path42" />
    <path
       d="m 206.52998,54.567 q 1.392,-2.436 3.19,-3.828 1.827,-1.392 4.176,-1.392 2.03,0 3.306,0.957 l -0.58,6.612 q -0.145,0.638 -0.493,0.87 -0.319,0.232 -0.899,0.232 -0.232,0 -0.609,-0.029 -0.377,-0.029 -0.783,-0.058 -0.406,-0.058 -0.841,-0.087 -0.406,-0.058 -0.754,-0.058 -1.972,0 -3.161,1.044 -1.16,1.044 -1.972,2.9 V 80 h -8.99 V 49.927 h 5.336 q 0.667,0 1.102,0.116 0.464,0.116 0.754,0.377 0.319,0.232 0.464,0.638 0.174,0.406 0.29,0.986 z"
       style="fill:#f8fafc"
       id="path44" />
    <path
       d="m 228.237,71.822 q 1.015,1.102 2.204,1.566 1.189,0.464 2.407,0.464 1.276,0 2.349,-0.464 1.073,-0.493 1.827,-1.566 0.783,-1.102 1.218,-2.871 0.435,-1.798 0.435,-4.408 0,-2.262 -0.348,-3.828 -0.319,-1.595 -0.986,-2.581 -0.638,-1.015 -1.624,-1.45 -0.957,-0.464 -2.204,-0.464 -1.653,0 -2.871,0.725 -1.218,0.725 -2.407,2.117 z m 0,-18.705 q 1.74,-1.653 3.799,-2.639 2.088,-1.015 4.64,-1.015 2.552,0 4.64,1.044 2.088,1.044 3.567,2.987 1.479,1.914 2.262,4.64 0.812,2.726 0.812,6.09 0,3.654 -0.928,6.641 -0.928,2.987 -2.639,5.133 -1.682,2.117 -4.031,3.306 -2.349,1.16 -5.191,1.16 -1.363,0 -2.436,-0.261 -1.073,-0.261 -1.972,-0.725 -0.899,-0.493 -1.653,-1.16 -0.725,-0.667 -1.421,-1.45 l -0.319,1.508 q -0.232,0.928 -0.754,1.276 Q 226.091,80 225.221,80 h -5.974 V 36.587 h 8.99 z"
       style="fill:#f8fafc"
       id="path46" />
    <path
       d="m 265.42994,49.463 q 3.422,0 6.235,1.073 2.813,1.073 4.814,3.074 2.03,2.001 3.132,4.872 1.131,2.842 1.131,6.409 0,3.596 -1.131,6.496 -1.102,2.871 -3.132,4.901 -2.001,2.001 -4.814,3.103 -2.813,1.073 -6.235,1.073 -3.451,0 -6.293,-1.073 -2.813,-1.102 -4.872,-3.103 -2.03,-2.03 -3.161,-4.901 -1.102,-2.9 -1.102,-6.496 0,-3.567 1.102,-6.409 1.131,-2.871 3.161,-4.872 2.059,-2.001 4.872,-3.074 2.842,-1.073 6.293,-1.073 z m 0,24.331 q 3.103,0 4.553,-2.175 1.479,-2.204 1.479,-6.67 0,-4.466 -1.479,-6.641 -1.45,-2.175 -4.553,-2.175 -3.19,0 -4.669,2.175 -1.479,2.175 -1.479,6.641 0,4.466 1.479,6.67 1.479,2.175 4.669,2.175 z"
       style="fill:#f8fafc"
       id="path48" />
    <path
       d="m 292.6759,54.567 q 1.392,-2.436 3.19,-3.828 1.827,-1.392 4.176,-1.392 2.03,0 3.306,0.957 l -0.58,6.612 q -0.145,0.638 -0.493,0.87 -0.319,0.232 -0.899,0.232 -0.232,0 -0.609,-0.029 -0.377,-0.029 -0.783,-0.058 -0.406,-0.058 -0.841,-0.087 -0.406,-0.058 -0.754,-0.058 -1.972,0 -3.161,1.044 -1.16,1.044 -1.972,2.9 V 80 h -8.99 V 49.927 h 5.336 q 0.667,0 1.102,0.116 0.464,0.116 0.754,0.377 0.319,0.232 0.464,0.638 0.174,0.406 0.29,0.986 z"
       style="fill:#f8fafc"
       id="path50" />
    <path
       d="m 305.36392,58.743 h 15.66 v 7.25 h -15.66 z"
       style="fill:#f8fafc"
       id="path52" />
    <path
       d="m 335.07495,52.566 q 1.624,-1.392 3.509,-2.233 1.914,-0.87 4.553,-0.87 2.465,0 4.35,0.87 1.914,0.841 3.219,2.378 1.305,1.508 1.972,3.625 0.667,2.088 0.667,4.553 V 80 h -8.99 V 60.889 q 0,-2.204 -1.015,-3.422 -1.015,-1.247 -2.987,-1.247 -1.479,0 -2.784,0.638 -1.276,0.609 -2.494,1.682 V 80 h -8.99 V 36.587 h 8.99 z"
       style="fill:#ff9d0b"
       id="path54" />
    <path
       d="M 359.79793,80 V 56.104 l -1.972,-0.406 q -1.015,-0.232 -1.653,-0.725 -0.609,-0.493 -0.609,-1.45 v -3.538 h 4.234 v -1.711 q 0,-2.581 0.812,-4.669 0.841,-2.088 2.378,-3.567 1.566,-1.479 3.799,-2.291 2.233,-0.812 5.075,-0.812 1.102,0 2.03,0.145 0.928,0.116 1.943,0.406 l -0.174,4.379 q -0.029,0.464 -0.232,0.783 -0.203,0.29 -0.551,0.493 -0.319,0.174 -0.696,0.261 -0.377,0.087 -0.754,0.087 -1.189,0 -2.117,0.232 -0.928,0.232 -1.566,0.841 -0.609,0.58 -0.928,1.566 -0.319,0.957 -0.319,2.436 v 1.421 h 7.047 v 6.148 h -6.757 V 80 Z"
       style="fill:#ff9d0b"
       id="path56" />
  </g>
</svg>
